<svg width="254" height="65" viewBox="0 0 254 65" fill="none" xmlns="http://www.w3.org/2000/svg">
<mask id="mask0_1906_32" style="mask-type:alpha" maskUnits="userSpaceOnUse" x="0" y="0" width="254" height="65">
<rect y="0.0683289" width="254" height="64.6832" fill="#D9D9D9"/>
</mask>
<g mask="url(#mask0_1906_32)">
<path d="M27.6082 0.0683594H24.4529L60.7386 63.9628H64.2883L27.6082 0.0683594Z" fill="#FEFDDF"/>
<path d="M11.0432 0.0683594H7.88794L44.1737 63.9628H47.7233L11.0432 0.0683594Z" fill="#FEFDDF"/>
<path d="M-5.52197 0.0683594H-8.67725L27.6085 63.9628H31.1582L-5.52197 0.0683594Z" fill="#FEFDDF"/>
<path d="M-22.0872 0.0683289H-25.2424L11.0433 63.9627H14.593L-22.0872 0.0683289Z" fill="#FEFDDF"/>
<path d="M44.1736 0.0683594H41.0183L77.304 63.9628H80.8537L44.1736 0.0683594Z" fill="#FEFDDF"/>
<path d="M60.7388 0.0683594H57.5835L93.8692 63.9628H97.4189L60.7388 0.0683594Z" fill="#FEFDDF"/>
<path d="M77.304 0.0683594H74.1487L110.434 63.9628H113.984L77.304 0.0683594Z" fill="#FEFDDF"/>
<path d="M93.8694 0.0683594H90.7141L127 63.9628H130.55L93.8694 0.0683594Z" fill="#FEFDDF"/>
<path d="M110.435 0.0683594H107.279L143.565 63.9628H147.115L110.435 0.0683594Z" fill="#FEFDDF"/>
<path d="M127 0.0683594H123.844L160.13 63.9628H163.68L127 0.0683594Z" fill="#FEFDDF"/>
<path d="M143.565 0.0683594H140.409L176.695 63.9628H180.245L143.565 0.0683594Z" fill="#FEFDDF"/>
<path d="M160.13 0.0683594H156.975L193.261 63.9628H196.81L160.13 0.0683594Z" fill="#FEFDDF"/>
<path d="M176.695 0.0683594H173.54L209.826 63.9628H213.375L176.695 0.0683594Z" fill="#FEFDDF"/>
<path d="M193.261 0.0683594H190.105L226.391 63.9628H229.941L193.261 0.0683594Z" fill="#FEFDDF"/>
<path d="M209.826 0.0683594H206.671L242.956 63.9628H246.506L209.826 0.0683594Z" fill="#FEFDDF"/>
<path d="M226.391 0.0683594H223.236L259.522 63.9628H263.071L226.391 0.0683594Z" fill="#FEFDDF"/>
<path d="M242.956 0.0683594H239.801L276.086 63.9628H279.636L242.956 0.0683594Z" fill="#FEFDDF"/>
</g>
</svg>
