<svg width="473" height="1535" viewBox="0 0 473 1535" fill="none" xmlns="http://www.w3.org/2000/svg">
<g opacity="0.12">
<path d="M165.942 1388.94H156.505" stroke="#FEFDDF" stroke-width="2" stroke-linecap="round"/>
<path d="M246.161 1396.61V1388.94M246.161 1388.94V1381.28M246.161 1388.94H250.879M246.161 1388.94H241.442" stroke="#FEFDDF" stroke-width="2" stroke-linecap="round"/>
<path d="M335.816 1388.94H326.379" stroke="#FEFDDF" stroke-width="2" stroke-linecap="round"/>
<path d="M416.035 1396.61V1388.94M416.035 1388.94V1381.28M416.035 1388.94H420.754M416.035 1388.94H411.316" stroke="#FEFDDF" stroke-width="2" stroke-linecap="round"/>
<path d="M165.942 1526.92H156.505" stroke="#FEFDDF" stroke-width="2" stroke-linecap="round"/>
<path d="M246.161 1534.59V1526.92M246.161 1526.92V1519.26M246.161 1526.92H250.879M246.161 1526.92H241.442" stroke="#FEFDDF" stroke-width="2" stroke-linecap="round"/>
<path d="M335.816 1526.92H326.379" stroke="#FEFDDF" stroke-width="2" stroke-linecap="round"/>
<path d="M416.035 1534.59V1526.92M416.035 1526.92V1519.26M416.035 1526.92H420.754M416.035 1526.92H411.316" stroke="#FEFDDF" stroke-width="2" stroke-linecap="round"/>
<path d="M165.942 1250.96H156.505" stroke="#FEFDDF" stroke-width="2" stroke-linecap="round"/>
<path d="M246.161 1258.63V1250.96M246.161 1250.96V1243.29M246.161 1250.96H250.879M246.161 1250.96H241.442" stroke="#FEFDDF" stroke-width="2" stroke-linecap="round"/>
<path d="M335.816 1250.96H326.379" stroke="#FEFDDF" stroke-width="2" stroke-linecap="round"/>
<path d="M416.035 1258.63V1250.96M416.035 1250.96V1243.29M416.035 1250.96H420.754M416.035 1250.96H411.316" stroke="#FEFDDF" stroke-width="2" stroke-linecap="round"/>
<path d="M165.942 561.052H156.505" stroke="#FEFDDF" stroke-width="2" stroke-linecap="round"/>
<path d="M9.43747 561.052H0" stroke="#FEFDDF" stroke-width="2" stroke-linecap="round"/>
<path d="M165.942 147.108H156.505" stroke="#FEFDDF" stroke-width="2" stroke-linecap="round"/>
<path d="M246.161 568.718V561.052M246.161 561.052V553.387M246.161 561.052H250.879M246.161 561.052H241.442" stroke="#FEFDDF" stroke-width="2" stroke-linecap="round"/>
<path d="M89.6557 568.718V561.052M89.6557 561.052V553.387M89.6557 561.052H94.3745M89.6557 561.052H84.937" stroke="#FEFDDF" stroke-width="2" stroke-linecap="round"/>
<path d="M246.161 154.774V147.108M246.161 147.108V139.442M246.161 147.108H250.879M246.161 147.108H241.442" stroke="#FEFDDF" stroke-width="2" stroke-linecap="round"/>
<path d="M335.816 561.052H326.379" stroke="#FEFDDF" stroke-width="2" stroke-linecap="round"/>
<path d="M335.816 147.108H326.379" stroke="#FEFDDF" stroke-width="2" stroke-linecap="round"/>
<path d="M416.035 568.718V561.052M416.035 561.052V553.387M416.035 561.052H420.754M416.035 561.052H411.316" stroke="#FEFDDF" stroke-width="2" stroke-linecap="round"/>
<path d="M416.035 154.774V147.108M416.035 147.108V139.442M416.035 147.108H420.754M416.035 147.108H411.316" stroke="#FEFDDF" stroke-width="2" stroke-linecap="round"/>
<path d="M165.942 699.034H156.505" stroke="#FEFDDF" stroke-width="2" stroke-linecap="round"/>
<path d="M9.43747 699.034H0" stroke="#FEFDDF" stroke-width="2" stroke-linecap="round"/>
<path d="M165.942 285.09H156.505" stroke="#FEFDDF" stroke-width="2" stroke-linecap="round"/>
<path d="M246.161 706.699V699.034M246.161 699.034V691.368M246.161 699.034H250.879M246.161 699.034H241.442" stroke="#FEFDDF" stroke-width="2" stroke-linecap="round"/>
<path d="M89.6557 706.699V699.034M89.6557 699.034V691.368M89.6557 699.034H94.3745M89.6557 699.034H84.937" stroke="#FEFDDF" stroke-width="2" stroke-linecap="round"/>
<path d="M246.161 292.755V285.089M246.161 285.089V277.424M246.161 285.089H250.879M246.161 285.089H241.442" stroke="#FEFDDF" stroke-width="2" stroke-linecap="round"/>
<path d="M335.816 699.034H326.379" stroke="#FEFDDF" stroke-width="2" stroke-linecap="round"/>
<path d="M335.816 285.09H326.379" stroke="#FEFDDF" stroke-width="2" stroke-linecap="round"/>
<path d="M416.035 706.699V699.034M416.035 699.034V691.368M416.035 699.034H420.754M416.035 699.034H411.316" stroke="#FEFDDF" stroke-width="2" stroke-linecap="round"/>
<path d="M416.035 292.755V285.089M416.035 285.089V277.424M416.035 285.089H420.754M416.035 285.089H411.316" stroke="#FEFDDF" stroke-width="2" stroke-linecap="round"/>
<path d="M165.942 423.071H156.505" stroke="#FEFDDF" stroke-width="2" stroke-linecap="round"/>
<path d="M9.43747 423.071H0" stroke="#FEFDDF" stroke-width="2" stroke-linecap="round"/>
<path d="M165.942 9.12671H156.505" stroke="#FEFDDF" stroke-width="2" stroke-linecap="round"/>
<path d="M246.161 430.737V423.071M246.161 423.071V415.405M246.161 423.071H250.879M246.161 423.071H241.442" stroke="#FEFDDF" stroke-width="2" stroke-linecap="round"/>
<path d="M89.6557 430.737V423.071M89.6557 423.071V415.405M89.6557 423.071H94.3745M89.6557 423.071H84.937" stroke="#FEFDDF" stroke-width="2" stroke-linecap="round"/>
<path d="M246.161 16.7922V9.12657M246.161 9.12657V1.46094M246.161 9.12657H250.879M246.161 9.12657H241.442" stroke="#FEFDDF" stroke-width="2" stroke-linecap="round"/>
<path d="M335.816 423.071H326.379" stroke="#FEFDDF" stroke-width="2" stroke-linecap="round"/>
<path d="M335.816 9.12671H326.379" stroke="#FEFDDF" stroke-width="2" stroke-linecap="round"/>
<path d="M416.035 430.737V423.071M416.035 423.071V415.405M416.035 423.071H420.754M416.035 423.071H411.316" stroke="#FEFDDF" stroke-width="2" stroke-linecap="round"/>
<path d="M416.035 16.7922V9.12657M416.035 9.12657V1.46094M416.035 9.12657H420.754M416.035 9.12657H411.316" stroke="#FEFDDF" stroke-width="2" stroke-linecap="round"/>
<path d="M165.942 974.997H156.505" stroke="#FEFDDF" stroke-width="2" stroke-linecap="round"/>
<path d="M9.43747 974.997H0" stroke="#FEFDDF" stroke-width="2" stroke-linecap="round"/>
<path d="M246.161 982.662V974.997M246.161 974.997V967.331M246.161 974.997H250.879M246.161 974.997H241.442" stroke="#FEFDDF" stroke-width="2" stroke-linecap="round"/>
<path d="M89.6557 982.662V974.997M89.6557 974.997V967.331M89.6557 974.997H94.3745M89.6557 974.997H84.937" stroke="#FEFDDF" stroke-width="2" stroke-linecap="round"/>
<path d="M335.816 974.997H326.379" stroke="#FEFDDF" stroke-width="2" stroke-linecap="round"/>
<path d="M416.035 982.662V974.997M416.035 974.997V967.331M416.035 974.997H420.754M416.035 974.997H411.316" stroke="#FEFDDF" stroke-width="2" stroke-linecap="round"/>
<path d="M165.942 1112.98H156.505" stroke="#FEFDDF" stroke-width="2" stroke-linecap="round"/>
<path d="M246.161 1120.64V1112.98M246.161 1112.98V1105.31M246.161 1112.98H250.879M246.161 1112.98H241.442" stroke="#FEFDDF" stroke-width="2" stroke-linecap="round"/>
<path d="M335.816 1112.98H326.379" stroke="#FEFDDF" stroke-width="2" stroke-linecap="round"/>
<path d="M416.035 1120.64V1112.98M416.035 1112.98V1105.31M416.035 1112.98H420.754M416.035 1112.98H411.316" stroke="#FEFDDF" stroke-width="2" stroke-linecap="round"/>
<path d="M165.942 837.015H156.505" stroke="#FEFDDF" stroke-width="2" stroke-linecap="round"/>
<path d="M9.43747 837.015H0" stroke="#FEFDDF" stroke-width="2" stroke-linecap="round"/>
<path d="M246.161 844.681V837.015M246.161 837.015V829.35M246.161 837.015H250.879M246.161 837.015H241.442" stroke="#FEFDDF" stroke-width="2" stroke-linecap="round"/>
<path d="M89.6557 844.681V837.015M89.6557 837.015V829.35M89.6557 837.015H94.3745M89.6557 837.015H84.937" stroke="#FEFDDF" stroke-width="2" stroke-linecap="round"/>
<path d="M335.816 837.015H326.379" stroke="#FEFDDF" stroke-width="2" stroke-linecap="round"/>
<path d="M416.035 844.681V837.015M416.035 837.015V829.35M416.035 837.015H420.754M416.035 837.015H411.316" stroke="#FEFDDF" stroke-width="2" stroke-linecap="round"/>
</g>
</svg>
